# This file uses centimeters as units for non-parametric coordinates.

mtllib Stalactite2.mtl
g default
v 1.575916 0.000000 -1.374075
v 1.662431 0.000000 -1.363805
v -1.773333 6.022963 0.995863
v -0.629549 6.022964 0.133767
v -1.773333 6.022963 -0.521637
v -0.629549 6.022964 -0.500000
v 1.575916 0.000000 -1.501990
v 1.662431 0.000000 -1.439847
v 1.287570 1.016700 -0.956216
v 1.598070 1.016700 -1.439587
v 1.688387 1.016700 -1.723125
v 1.287570 1.016700 -1.435184
v 1.073157 1.456640 -1.430284
v 1.732379 1.449247 -1.718226
v 1.732379 1.449247 -1.434687
v 1.073157 1.456640 -0.870471
v -0.782606 2.827532 -1.444044
v 1.680677 2.827532 -1.761486
v 1.680677 2.827532 -1.420532
v -0.890562 2.827532 -0.264602
v -0.945263 3.591581 -1.165070
v 1.633648 3.805993 -1.351903
v 1.633648 3.805993 -1.043272
v -0.945263 3.591581 0.014371
v -1.499774 5.407703 -0.883175
v -0.247548 5.407704 -0.861538
v -0.247548 5.407704 -0.164633
v -1.499774 5.407703 0.697464
v 0.121269 4.768800 -0.248313
v 0.121270 4.768800 -0.945218
v -1.336370 4.768799 -0.911106
v -1.470201 4.768799 0.613783
v 1.687540 2.429892 -1.435716
v 1.687540 2.429891 -1.776670
v -0.399027 2.429891 -1.488729
v -0.399027 2.429891 -0.760402
v 0.696469 4.414735 -0.477489
v 0.696469 4.414734 -1.092511
v -1.171222 4.335886 -0.948476
v -1.299339 4.335886 0.449853
v 1.724171 1.628748 -1.437242
v 1.724171 1.628748 -1.720780
v 0.774109 1.613960 -1.432839
v 0.774109 1.613960 -0.864938
v 1.706395 2.017523 -1.723130
v 1.706395 2.017523 -1.439591
v 0.242218 2.017522 -0.867288
v 0.242219 2.017522 -1.435189
v 1.716166 1.803829 -1.429012
v 1.716166 1.803829 -1.712551
v 0.622172 1.803829 -1.424610
v 0.622172 1.803829 -0.856709
v 1.615420 0.000000 -1.338993
v 1.615420 0.000000 -1.550676
v 1.491384 1.016700 -1.822227
v 1.374167 1.453264 -1.817022
v 1.207920 1.620713 -1.819576
v 1.121704 1.803829 -1.811347
v 0.910780 2.017522 -1.821926
v 0.553727 2.429891 -1.875466
v 0.342161 2.827532 -1.904838
v 0.232301 3.689484 -1.566226
v -0.388027 4.371889 -1.170107
v -0.743515 4.768800 -1.072511
v -0.927992 5.407703 -0.988831
v -1.251067 6.022964 -0.627293
v -1.251067 6.022964 0.340414
v -0.927992 5.407703 0.042015
v -0.743515 4.768800 -0.041665
v -0.388027 4.371889 0.022913
v 0.232301 3.689484 -0.383793
v 0.342161 2.827532 -0.656946
v 0.553727 2.429891 -0.889176
v 0.910780 2.017523 -0.835636
v 1.121704 1.803829 -0.825057
v 1.207920 1.620713 -0.833286
v 1.374167 1.453264 -0.941209
v 1.491384 1.016700 -1.005676
vt 0.375000 0.000000
vt 0.625000 0.000000
vt 0.375000 0.250000
vt 0.625000 0.250000
vt 0.375000 0.500000
vt 0.625000 0.500000
vt 0.375000 0.750000
vt 0.625000 0.750000
vt 0.375000 1.000000
vt 0.625000 1.000000
vt 0.875000 0.000000
vt 0.875000 0.250000
vt 0.125000 0.000000
vt 0.125000 0.250000
vt 0.375000 0.042201
vt 0.625000 0.042201
vt 0.625000 0.707799
vt 0.875000 0.042201
vt 0.125000 0.042201
vt 0.375000 0.707799
vt 0.125000 0.064145
vt 0.375000 0.685855
vt 0.625000 0.685855
vt 0.875000 0.064145
vt 0.625000 0.064145
vt 0.375000 0.064145
vt 0.125000 0.117365
vt 0.375000 0.632635
vt 0.625000 0.632635
vt 0.875000 0.117365
vt 0.625000 0.117365
vt 0.375000 0.117365
vt 0.125000 0.157978
vt 0.375000 0.592022
vt 0.625000 0.592022
vt 0.875000 0.157978
vt 0.625000 0.157978
vt 0.375000 0.157978
vt 0.125000 0.224462
vt 0.375000 0.525538
vt 0.625000 0.525538
vt 0.875000 0.224462
vt 0.625000 0.224462
vt 0.375000 0.224462
vt 0.625000 0.197942
vt 0.625000 0.552058
vt 0.875000 0.197942
vt 0.125000 0.197942
vt 0.375000 0.552058
vt 0.375000 0.197942
vt 0.625000 0.100859
vt 0.625000 0.649141
vt 0.875000 0.100859
vt 0.125000 0.100859
vt 0.375000 0.649141
vt 0.375000 0.100859
vt 0.625000 0.183246
vt 0.625000 0.566754
vt 0.875000 0.183246
vt 0.125000 0.183246
vt 0.375000 0.566754
vt 0.375000 0.183246
vt 0.625000 0.070865
vt 0.625000 0.679135
vt 0.875000 0.070865
vt 0.125000 0.070865
vt 0.375000 0.679135
vt 0.375000 0.070865
vt 0.625000 0.664579
vt 0.875000 0.085421
vt 0.625000 0.085421
vt 0.375000 0.085421
vt 0.125000 0.085421
vt 0.375000 0.664579
vt 0.625000 0.077420
vt 0.625000 0.672580
vt 0.875000 0.077420
vt 0.125000 0.077420
vt 0.375000 0.672580
vt 0.375000 0.077420
vt 0.489153 0.000000
vt 0.489153 1.000000
vt 0.489153 0.750000
vt 0.489153 0.707799
vt 0.489153 0.685855
vt 0.489153 0.679135
vt 0.489153 0.672580
vt 0.489153 0.664579
vt 0.489153 0.649141
vt 0.489153 0.632635
vt 0.489153 0.592022
vt 0.489153 0.566754
vt 0.489153 0.552058
vt 0.489153 0.525538
vt 0.489153 0.500000
vt 0.489153 0.250000
vt 0.489153 0.224462
vt 0.489153 0.197942
vt 0.489153 0.183246
vt 0.489153 0.157978
vt 0.489153 0.117365
vt 0.489153 0.100859
vt 0.489153 0.085421
vt 0.489153 0.077420
vt 0.489153 0.070865
vt 0.489153 0.064145
vt 0.489153 0.042201
vn 0.649198 0.041213 0.759502
vn 0.679133 -0.145821 0.719385
vn 0.920602 -0.007882 0.390423
vn 0.856479 0.040760 0.514571
vn -0.000001 1.000000 0.000000
vn -0.000001 1.000000 0.000000
vn -0.000001 1.000000 0.000000
vn -0.000001 1.000000 0.000000
vn -0.399609 -0.230704 -0.887180
vn -0.406517 -0.304570 -0.861383
vn 0.291193 0.061238 -0.954702
vn 0.544707 -0.099567 -0.832695
vn 0.000000 -1.000000 0.000000
vn 0.000000 -1.000000 0.000000
vn 0.000000 -1.000000 0.000000
vn 0.000000 -1.000000 0.000000
vn 0.976382 -0.030940 0.213825
vn 0.976129 -0.111213 0.186559
vn 0.985204 -0.130978 0.110534
vn 0.984920 -0.132372 0.111400
vn -0.941168 -0.337939 0.000000
vn -0.912931 -0.408113 0.000000
vn -0.673602 -0.739095 0.000000
vn -0.751214 -0.660059 0.000000
vn 0.763137 -0.102280 0.638091
vn 0.947120 0.047560 0.317335
vn 0.968055 0.061220 0.243150
vn 0.968055 0.061220 0.243150
vn -0.383329 -0.301474 -0.873025
vn 0.642377 -0.172749 -0.746666
vn -0.962057 -0.272849 0.000000
vn -0.962057 -0.272849 0.000000
vn -0.143119 -0.218811 -0.965214
vn -0.084069 0.201126 -0.975951
vn 0.103561 0.302144 -0.947620
vn 0.099516 -0.034720 -0.994430
vn 0.999553 0.029900 0.000001
vn 0.999597 0.028373 0.000001
vn 0.999624 0.027435 0.000001
vn 0.999089 0.042681 0.000000
vn 0.381188 -0.334467 0.861874
vn 0.368239 -0.088329 0.925526
vn 0.489273 0.070808 0.869252
vn 0.459629 -0.199340 0.865451
vn -0.617829 -0.786057 -0.020046
vn -0.651049 -0.758476 -0.029140
vn -0.985774 -0.161785 -0.045554
vn -0.806166 -0.590159 -0.042545
vn -0.087196 0.377155 -0.922036
vn 0.087236 0.444350 -0.891596
vn 0.940637 0.339415 0.000000
vn 0.603717 0.797199 -0.000000
vn 0.383123 -0.226176 0.895579
vn 0.452235 -0.256901 0.854099
vn -0.946529 -0.319240 -0.046573
vn -0.984796 -0.167576 -0.045783
vn -0.046585 0.155292 -0.986770
vn -0.005972 0.266701 -0.963761
vn 0.162134 0.388437 -0.907099
vn 0.120066 0.313119 -0.942094
vn 0.810419 0.585851 -0.000000
vn 0.662298 0.749240 -0.000000
vn 0.863655 0.504084 0.000000
vn 0.854547 0.519375 0.000000
vn 0.517102 -0.093415 0.850811
vn 0.421348 0.090244 0.902398
vn 0.314792 0.156478 0.936173
vn 0.264399 -0.054110 0.962894
vn -0.967004 -0.246666 -0.063719
vn -0.984177 -0.170605 -0.047841
vn -0.938266 -0.345759 -0.010350
vn -0.981287 -0.189189 -0.035812
vn -0.002260 0.511198 -0.859460
vn 0.158201 0.566056 -0.809045
vn 0.849569 0.527478 0.000000
vn 0.849569 0.527478 0.000000
vn 0.721403 0.017454 0.692295
vn 0.290675 -0.277549 0.915683
vn -0.913751 -0.406275 0.000000
vn -0.913751 -0.406275 0.000000
vn 0.527874 0.849322 -0.000000
vn 0.539767 0.841814 -0.000000
vn -0.118149 0.348726 -0.929748
vn 0.070632 0.497283 -0.864709
vn -0.937129 -0.344615 -0.055041
vn -0.935818 -0.343769 -0.077901
vn 0.405490 -0.108794 0.907602
vn 0.423708 -0.146207 0.893921
vn 0.998956 0.045677 0.000000
vn 0.998956 0.045677 0.000000
vn 0.998956 0.045676 0.000000
vn 0.998956 0.045676 0.000000
vn -0.210932 -0.264826 -0.940944
vn -0.142059 -0.336867 -0.930774
vn 0.115091 -0.046222 -0.992279
vn 0.154930 0.052345 -0.986538
vn -0.606965 -0.794729 0.000000
vn -0.601515 -0.798861 0.000000
vn -0.526553 -0.850143 0.000000
vn -0.526543 -0.850148 0.000000
vn 0.360189 0.200048 0.911178
vn 0.458244 0.186271 0.869089
vn 0.664982 0.273448 0.695000
vn 0.528359 0.297037 0.795365
vn 0.998956 0.045676 0.000000
vn 0.998956 0.045677 0.000000
vn -0.287104 -0.361054 -0.887249
vn 0.193540 0.092990 -0.976676
vn -0.621413 -0.783483 0.000000
vn -0.603841 -0.797105 0.000000
vn 0.501788 0.037028 0.864198
vn 0.746374 0.179810 0.640776
vn 0.000000 -1.000000 0.000000
vn 0.000000 -1.000000 0.000000
vn -0.824758 -0.262458 -0.500889
vn -0.851588 -0.220588 -0.475541
vn -0.694963 -0.496568 -0.520044
vn -0.571396 -0.515126 -0.638867
vn -0.482904 -0.554083 -0.678083
vn -0.379794 -0.560485 -0.735944
vn -0.368432 -0.354667 -0.859342
vn -0.354240 0.223277 -0.908109
vn -0.319416 0.232897 -0.918549
vn -0.288329 0.091134 -0.953185
vn -0.234856 0.015185 -0.971912
vn -0.191446 0.309930 -0.931285
vn -0.170632 0.436387 -0.883431
vn -0.000001 1.000000 0.000000
vn -0.000001 1.000000 0.000000
vn 0.752050 0.052261 0.657031
vn 0.766303 0.061376 0.639541
vn 0.692947 0.051384 0.719156
vn 0.505467 0.116975 0.854880
vn 0.352783 -0.274239 0.894616
vn 0.300225 -0.304838 0.903847
vn 0.183279 -0.526395 0.830251
vn 0.054293 0.006206 0.998506
vn -0.056087 -0.034890 0.997816
vn -0.053124 -0.107004 0.992838
vn 0.111284 -0.203474 0.972735
vn 0.186886 -0.146972 0.971325
vn 0.055560 -0.336060 0.940200
s 1
g pCube1
usemtl blinn1SG
f 77/106/1 78/107/2 10/16/3 15/25/4
s 2
f 66/95/5 67/96/6 4/4/7 6/6/8
s 3
f 55/84/9 56/85/10 14/23/11 11/17/12
s 4
f 53/82/13 54/83/14 8/8/15 2/10/16
s 5
f 10/16/17 11/18/18 14/24/19 15/25/20
s 6
f 12/19/21 9/15/22 16/26/23 13/21/24
s 1
f 78/107/2 53/81/25 2/2/26 10/16/3
s 5
f 2/2/27 8/11/28 11/18/18 10/16/17
s 3
f 54/83/29 55/84/9 11/17/12 8/8/30
s 6
f 7/13/31 1/1/32 9/15/22 12/19/21
s 3
f 60/89/33 61/90/34 18/29/35 34/52/36
s 5
f 33/51/37 34/53/38 18/30/39 19/31/40
s 1
f 72/101/41 73/102/42 33/51/43 19/31/44
s 6
f 35/54/45 36/56/46 20/32/47 17/27/48
s 3
f 61/90/34 62/91/49 22/35/50 18/29/35
s 5
f 19/31/40 18/30/39 22/36/51 23/37/52
s 1
f 71/100/53 72/101/41 19/31/44 23/37/54
s 6
f 17/27/48 20/32/47 24/38/55 21/33/56
s 3
f 64/93/57 65/94/58 26/41/59 30/46/60
s 5
f 29/45/61 30/47/62 26/42/63 27/43/64
s 1
f 68/97/65 69/98/66 29/45/67 27/43/68
s 6
f 31/48/69 32/50/70 28/44/71 25/39/72
s 3
f 65/94/58 66/95/73 6/6/74 26/41/59
s 5
f 27/43/64 26/42/63 6/12/75 4/4/76
s 1
f 67/96/77 68/97/65 27/43/68 4/4/78
s 6
f 25/39/72 28/44/71 3/3/79 5/14/80
s 5
f 37/57/81 38/59/82 30/47/62 29/45/61
s 3
f 63/92/83 64/93/57 30/46/60 38/58/84
s 6
f 39/60/85 40/62/86 32/50/70 31/48/69
s 1
f 69/98/66 70/99/87 37/57/88 29/45/67
s 5
f 49/75/89 50/77/90 45/70/91 46/71/92
s 3
f 58/87/93 59/88/94 45/69/95 50/76/96
s 6
f 51/78/97 52/80/98 47/72/99 48/73/100
s 1
f 74/103/101 75/104/102 49/75/103 46/71/104
s 5
f 23/37/52 22/36/51 38/59/82 37/57/81
s 3
f 62/91/49 63/92/83 38/58/84 22/35/50
s 6
f 21/33/56 24/38/55 40/62/86 39/60/85
s 1
f 70/99/87 71/100/53 23/37/54 37/57/88
s 5
f 15/25/20 14/24/19 42/65/105 41/63/106
s 3
f 56/85/10 57/86/107 42/64/108 14/23/11
s 6
f 13/21/24 16/26/23 44/68/109 43/66/110
s 1
f 76/105/111 77/106/1 15/25/4 41/63/112
s 5
f 46/71/92 45/70/91 34/53/38 33/51/37
s 1
f 73/102/42 74/103/101 46/71/104 33/51/43
s 6
f 48/73/100 47/72/99 36/56/46 35/54/45
s 3
f 59/88/94 60/89/33 34/52/36 45/69/95
s 5
f 41/63/106 42/65/105 50/77/90 49/75/89
s 3
f 57/86/107 58/87/93 50/76/96 42/64/108
s 6
f 43/66/110 44/68/109 52/80/98 51/78/97
s 1
f 75/104/102 76/105/111 41/63/112 49/75/103
s 4
f 7/7/113 54/83/14 53/82/13 1/9/114
s 3
f 12/20/115 55/84/9 54/83/29 7/7/116
f 13/22/117 56/85/10 55/84/9 12/20/115
f 43/67/118 57/86/107 56/85/10 13/22/117
f 51/79/119 58/87/93 57/86/107 43/67/118
f 48/74/120 59/88/94 58/87/93 51/79/119
f 35/55/121 60/89/33 59/88/94 48/74/120
f 17/28/122 61/90/34 60/89/33 35/55/121
f 21/34/123 62/91/49 61/90/34 17/28/122
f 39/61/124 63/92/83 62/91/49 21/34/123
f 31/49/125 64/93/57 63/92/83 39/61/124
f 25/40/126 65/94/58 64/93/57 31/49/125
f 5/5/127 66/95/73 65/94/58 25/40/126
s 2
f 3/3/128 67/96/6 66/95/5 5/5/129
s 1
f 28/44/130 68/97/65 67/96/77 3/3/131
f 32/50/132 69/98/66 68/97/65 28/44/130
f 40/62/133 70/99/87 69/98/66 32/50/132
f 24/38/134 71/100/53 70/99/87 40/62/133
f 20/32/135 72/101/41 71/100/53 24/38/134
f 36/56/136 73/102/42 72/101/41 20/32/135
f 47/72/137 74/103/101 73/102/42 36/56/136
f 52/80/138 75/104/102 74/103/101 47/72/137
f 44/68/139 76/105/111 75/104/102 52/80/138
f 16/26/140 77/106/1 76/105/111 44/68/139
f 9/15/141 78/107/2 77/106/1 16/26/140
f 1/1/142 53/81/25 78/107/2 9/15/141
